<?xml version="1.0" encoding="utf-8"?>
<!-- Generator: Adobe Illustrator 27.8.1, SVG Export Plug-In . SVG Version: 6.00 Build 0)  -->
<svg version="1.1" id="Layer_1" xmlns="http://www.w3.org/2000/svg" xmlns:xlink="http://www.w3.org/1999/xlink" x="0px" y="0px"
	 viewBox="0 0 1920 1080" style="enable-background:new 0 0 1920 1080;" xml:space="preserve">
<style type="text/css">
	.st0{fill:url(#SVGID_1_);}
	.st1{fill:url(#SVGID_00000119806484696795446870000016287569612487308191_);}
	.st2{fill:url(#SVGID_00000099627113748438112930000018419273147259600019_);}
	.st3{fill:url(#SVGID_00000000215338396569516160000007382110010897286562_);}
	.st4{fill:url(#SVGID_00000013886892193157638990000016847253183945837699_);}
	.st5{fill:url(#SVGID_00000132067825747634253310000004761194765505836678_);}
	.st6{fill:url(#SVGID_00000044173426701066477610000003238174505866975409_);}
	.st7{fill:url(#SVGID_00000016043728965611013870000004047703416355057032_);}
	
		.st8{fill:url(#SVGID_00000091717175959485650190000002009758856482128522_);stroke:url(#SVGID_00000165209899127343556260000015126341624584810411_);stroke-miterlimit:10;}
	
		.st9{fill:url(#SVGID_00000016077581796672921240000015197018769754651783_);stroke:url(#SVGID_00000000944516022328788790000001365565886445679035_);stroke-miterlimit:10;}
	
		.st10{fill:url(#SVGID_00000175315166539078052460000001435762635323429767_);stroke:url(#SVGID_00000017487916431860598490000002566103427542315673_);stroke-miterlimit:10;}
	
		.st11{fill:url(#SVGID_00000125574118669824837480000017544251825138642584_);stroke:url(#SVGID_00000137825485553332293120000007146369232220975527_);stroke-miterlimit:10;}
	
		.st12{fill:url(#SVGID_00000149354953803304460930000001650378785320508860_);stroke:url(#SVGID_00000109719386119823015910000000375518681475447225_);stroke-miterlimit:10;}
	
		.st13{fill:url(#SVGID_00000157274624524099092170000012724998952186671280_);stroke:url(#SVGID_00000147208784403200341090000012351848525484633502_);stroke-miterlimit:10;}
	
		.st14{fill:url(#SVGID_00000052103218756459732820000000811959423204313014_);stroke:url(#SVGID_00000072970650621549071230000004781689027576259001_);stroke-miterlimit:10;}
	
		.st15{fill:url(#SVGID_00000160906742196812223810000006254082008214950784_);stroke:url(#SVGID_00000133488439577388139170000007207628160688662961_);stroke-miterlimit:10;}
</style>
<g>
	<linearGradient id="SVGID_1_" gradientUnits="userSpaceOnUse" x1="163.7558" y1="260.6836" x2="163.7558" y2="112.17">
		<stop  offset="0" style="stop-color:#F6921E"/>
		<stop  offset="0.6772" style="stop-color:#652F8E"/>
	</linearGradient>
	<path class="st0" d="M251.22,209.28c0,0-22.25,4.77-42.34-18.28c-3.73-4.28-7.79-7.71-11.93-10.45
		c-18.22-12.11-38.06-11.14-38.06-11.14c-14.63-1.34-26.96,10.51-26.96,25.25v8.91c0,31.56-24.92,57.12-55.64,57.12v-64.32
		c0-40.04,27.23-74.4,63.93-82.42c5.17-1.14,10.52-1.74,16.02-1.77c44.45-0.23,80.7,36.84,80.73,82.45
		C236.97,202.71,243.32,209.28,251.22,209.28z"/>
</g>
<linearGradient id="SVGID_00000049931222610463636110000016389661282025808549_" gradientUnits="userSpaceOnUse" x1="189.9055" y1="229.0543" x2="250.7117" y2="193.9478">
	<stop  offset="0" style="stop-color:#F6921E"/>
	<stop  offset="0.8042" style="stop-color:#652F8E"/>
</linearGradient>
<path style="fill:url(#SVGID_00000049931222610463636110000016389661282025808549_);" d="M259.56,209.28v57.12h-8.35
	c-27.26,0-50.91-16.11-62.4-39.56c-1.45-2.88-2.67-5.88-3.7-8.97c-2.42-7.2-3.76-14.94-3.78-22.96
	c-0.06-13.02-9.79-24.36-22.45-25.5c0,0,29.9-1.46,49.99,21.59c3.76,4.31,7.59,7.65,11.35,10.22l0.03,0.03
	c16.27,11.17,30.96,8.03,30.96,8.03H259.56z"/>
<linearGradient id="SVGID_00000009587214326990861590000009021009799745532318_" gradientUnits="userSpaceOnUse" x1="104.1138" y1="171.7549" x2="104.1138" y2="75.5858">
	<stop  offset="0" style="stop-color:#F6921E"/>
	<stop  offset="0.8042" style="stop-color:#652F8E"/>
</linearGradient>
<path style="fill:url(#SVGID_00000009587214326990861590000009021009799745532318_);" d="M131.93,34.12v82.14
	c-16.33,5.57-30.32,16.45-40.17,30.62C82.03,160.84,76.3,178,76.3,196.37V91.24C76.3,59.68,101.19,34.12,131.93,34.12z"/>
<linearGradient id="SVGID_00000011748843933377911020000006329053888703487932_" gradientUnits="userSpaceOnUse" x1="189.557" y1="233.682" x2="189.557" y2="163.0856">
	<stop  offset="0" style="stop-color:#F6921E"/>
	<stop  offset="0.8042" style="stop-color:#652F8E"/>
</linearGradient>
<path style="fill:url(#SVGID_00000011748843933377911020000006329053888703487932_);" d="M199.28,191.43
	c-8.01-5.88-11.66-8.03-11.66-8.03s0.64,1.74-1.03,17.85c-0.72,6.97-1.28,12.31-1.47,16.62c-2.42-7.2-3.76-14.94-3.78-22.96
	c-0.06-13.02-9.79-24.36-22.45-25.5c0,0,29.9-1.46,49.99,21.59c3.76,4.31,7.59,7.65,11.35,10.22
	C219.45,200.99,207.04,197.14,199.28,191.43z"/>
<linearGradient id="SVGID_00000117649484990942321980000003766285536262672558_" gradientUnits="userSpaceOnUse" x1="195.7187" y1="223.9879" x2="195.7187" y2="132.9239">
	<stop  offset="0" style="stop-color:#F6921E"/>
	<stop  offset="0.8042" style="stop-color:#652F8E"/>
</linearGradient>
<path style="fill:url(#SVGID_00000117649484990942321980000003766285536262672558_);" d="M251.22,209.28c0,0-8.35,1.8-19.42-2.11
	c-7.01-2.46-15.13-7.23-22.92-16.17c-3.73-4.28-7.79-7.71-11.93-10.45c-3.5-57.86-56.72-66.6-56.72-66.6
	c5.17-1.14,10.52-1.74,16.02-1.77c9.12-0.06,17.91,1.49,26.12,4.34c31.68,11.02,54.58,41.87,54.61,78.11
	C236.97,202.71,243.32,209.28,251.22,209.28z"/>
<linearGradient id="SVGID_00000105387623910132239290000007100586583871242410_" gradientUnits="userSpaceOnUse" x1="216.7909" y1="228.4153" x2="216.7909" y2="141.9771">
	<stop  offset="0" style="stop-color:#652F8E"/>
	<stop  offset="1" style="stop-color:#F6921E"/>
</linearGradient>
<path style="fill:url(#SVGID_00000105387623910132239290000007100586583871242410_);" d="M251.22,209.28c0,0-8.35,1.8-19.42-2.11
	c-2.78-53.12-32.69-79.8-49.43-90.65c31.68,11.02,54.58,41.87,54.61,78.11C236.97,202.71,243.32,209.28,251.22,209.28z"/>
<linearGradient id="SVGID_00000031917611268274203640000004958328764998641082_" gradientUnits="userSpaceOnUse" x1="104.1138" y1="262.0789" x2="104.1138" y2="103.4411">
	<stop  offset="0" style="stop-color:#F6921E"/>
	<stop  offset="0.8042" style="stop-color:#652F8E"/>
</linearGradient>
<path style="fill:url(#SVGID_00000031917611268274203640000004958328764998641082_);" d="M131.93,110.06v6.2
	C99.5,127.31,76.3,159.41,76.3,196.37v-64.32C87.87,121.94,105.73,112,131.93,110.06z"/>
<linearGradient id="SVGID_00000009582970785515850110000002994063037767717271_" gradientUnits="userSpaceOnUse" x1="29.8767" y1="153.8874" x2="134.4477" y2="93.5133">
	<stop  offset="0" style="stop-color:#652F8E"/>
	<stop  offset="1" style="stop-color:#F6921E"/>
</linearGradient>
<path style="fill:url(#SVGID_00000009582970785515850110000002994063037767717271_);" d="M131.93,34.12v16.56
	C121.78,55.42,98.49,68.19,93.9,87.9c-3.03,13.05-2.95,37.93-2.14,58.98C82.03,160.84,76.3,178,76.3,196.37V91.24
	C76.3,59.68,101.19,34.12,131.93,34.12z"/>
<g>
	
		<linearGradient id="SVGID_00000062897221552533915590000015785577706042713744_" gradientUnits="userSpaceOnUse" x1="269.5093" y1="227.8588" x2="384.2967" y2="161.5863">
		<stop  offset="0" style="stop-color:#652F8E"/>
		<stop  offset="0.8413" style="stop-color:#F6921E"/>
	</linearGradient>
	
		<linearGradient id="SVGID_00000015331124577840132110000008619357236044460687_" gradientUnits="userSpaceOnUse" x1="270.4925" y1="207.1664" x2="376.6335" y2="207.1664">
		<stop  offset="0.0952" style="stop-color:#652D90"/>
		<stop  offset="1" style="stop-color:#EF8E26"/>
	</linearGradient>
	
		<path style="fill:url(#SVGID_00000062897221552533915590000015785577706042713744_);stroke:url(#SVGID_00000015331124577840132110000008619357236044460687_);stroke-miterlimit:10;" d="
		M270.99,217.37v-69.92h27.42v69.23c0,16.42,11.89,24.17,25.14,24.17c13.26,0,25.14-7.75,25.14-24.17v-69.23h27.43v69.92
		c0,20.42-14.86,49.52-52.58,49.52S270.99,237.79,270.99,217.37z"/>
	
		<linearGradient id="SVGID_00000036210453431215792840000009372332237278554003_" gradientUnits="userSpaceOnUse" x1="378.3164" y1="250.6328" x2="493.1043" y2="184.36">
		<stop  offset="0" style="stop-color:#652F8E"/>
		<stop  offset="0.8413" style="stop-color:#F6921E"/>
	</linearGradient>
	
		<linearGradient id="SVGID_00000080914715801390906770000013262780774321601206_" gradientUnits="userSpaceOnUse" x1="385.981" y1="205.0551" x2="492.122" y2="205.0551">
		<stop  offset="0.0952" style="stop-color:#652D90"/>
		<stop  offset="1" style="stop-color:#EF8E26"/>
	</linearGradient>
	
		<path style="fill:url(#SVGID_00000036210453431215792840000009372332237278554003_);stroke:url(#SVGID_00000080914715801390906770000013262780774321601206_);stroke-miterlimit:10;" d="
		M491.62,194.84v69.93h-27.43v-69.23c0-16.66-11.88-24.17-25.14-24.17c-13.25,0-25.14,7.51-25.14,24.17v69.23h-27.42v-69.93
		c0-20.42,14.85-49.51,52.57-49.51S491.62,174.43,491.62,194.84z"/>
	
		<linearGradient id="SVGID_00000174574816955958608210000001374804432617369225_" gradientUnits="userSpaceOnUse" x1="491.4952" y1="207.5252" x2="568.1481" y2="163.2696">
		<stop  offset="0" style="stop-color:#652F8E"/>
		<stop  offset="0.8413" style="stop-color:#F6921E"/>
	</linearGradient>
	
		<linearGradient id="SVGID_00000056411775973455382810000006050230394766970023_" gradientUnits="userSpaceOnUse" x1="503.982" y1="183.464" x2="562.3587" y2="183.464">
		<stop  offset="0.0952" style="stop-color:#652D90"/>
		<stop  offset="1" style="stop-color:#EF8E26"/>
	</linearGradient>
	
		<path style="fill:url(#SVGID_00000174574816955958608210000001374804432617369225_);stroke:url(#SVGID_00000056411775973455382810000006050230394766970023_);stroke-miterlimit:10;" d="
		M561.86,266.42c-37.49,0-57.38-19.48-57.38-55.61v-110.3h27.43v46.94h26.05v25.81h-26.05v37.31c0,21.35,8.46,30.04,29.94,30.04
		V266.42z"/>
	
		<linearGradient id="SVGID_00000155868668398100767180000011526903829923681722_" gradientUnits="userSpaceOnUse" x1="561.9364" y1="236.1726" x2="666.9476" y2="175.5444">
		<stop  offset="0" style="stop-color:#652F8E"/>
		<stop  offset="0.8413" style="stop-color:#F6921E"/>
	</linearGradient>
	
		<linearGradient id="SVGID_00000168111692261705243680000013046564998692920461_" gradientUnits="userSpaceOnUse" x1="568.3163" y1="205.8719" x2="660.8929" y2="205.8719">
		<stop  offset="0.0952" style="stop-color:#652D90"/>
		<stop  offset="1" style="stop-color:#EF8E26"/>
	</linearGradient>
	
		<path style="fill:url(#SVGID_00000155868668398100767180000011526903829923681722_);stroke:url(#SVGID_00000168111692261705243680000013046564998692920461_);stroke-miterlimit:10;" d="
		M660.39,229.34c0,23.93-18.51,36.84-44.56,36.84c-24.23,0-39.77-11.26-46.86-17.83l14.63-22.06c9.6,9.38,21.72,14.08,32.91,14.08
		c9.38,0,16.46-3.29,16.46-10.1c0-20.18-62.17-7.74-62.17-50.68c0-21.59,15.77-34.03,41.59-34.03c22.63,0,37.49,9.39,47.54,17.84
		l-14.63,21.82c-12.11-10.32-24-13.84-33.37-13.84c-8.91,0-13.72,3.05-13.72,7.75C598.22,196.26,660.39,185.46,660.39,229.34z"/>
	
		<linearGradient id="SVGID_00000029008903256266292160000010784684618132432575_" gradientUnits="userSpaceOnUse" x1="647.6304" y1="225.9391" x2="762.5766" y2="159.5749">
		<stop  offset="0" style="stop-color:#652F8E"/>
		<stop  offset="0.8413" style="stop-color:#F6921E"/>
	</linearGradient>
	
		<linearGradient id="SVGID_00000157291432135162927420000005280780668376938155_" gradientUnits="userSpaceOnUse" x1="669.5519" y1="182.6424" x2="775.6929" y2="182.6424">
		<stop  offset="0.0952" style="stop-color:#652D90"/>
		<stop  offset="1" style="stop-color:#EF8E26"/>
	</linearGradient>
	
		<path style="fill:url(#SVGID_00000029008903256266292160000010784684618132432575_);stroke:url(#SVGID_00000157291432135162927420000005280780668376938155_);stroke-miterlimit:10;" d="
		M697.47,155.65c6.63-6.33,16.01-10.32,28.8-10.32c34.06,0,48.92,29.09,48.92,49.51v69.93h-27.43v-69.23
		c0-16.66-11.88-24.17-25.14-24.17c-13.25,0-25.14,7.51-25.14,24.17v69.23h-27.42V100.51h27.42V155.65z"/>
	
		<linearGradient id="SVGID_00000133497479298248727660000002115362647590824124_" gradientUnits="userSpaceOnUse" x1="796.7916" y1="244.8009" x2="901.772" y2="184.1904">
		<stop  offset="0" style="stop-color:#652F8E"/>
		<stop  offset="0.8413" style="stop-color:#F6921E"/>
	</linearGradient>
	
		<linearGradient id="SVGID_00000089545947465763414860000014433733904494614158_" gradientUnits="userSpaceOnUse" x1="785.0404" y1="206.3448" x2="904.2089" y2="206.3448">
		<stop  offset="0.0952" style="stop-color:#652D90"/>
		<stop  offset="1" style="stop-color:#EF8E26"/>
	</linearGradient>
	
		<path style="fill:url(#SVGID_00000133497479298248727660000002115362647590824124_);stroke:url(#SVGID_00000089545947465763414860000014433733904494614158_);stroke-miterlimit:10;" d="
		M903.71,206.57v58.2h-27.42v-11.26c-5.49,7.27-17.14,13.37-33.82,13.37c-33.15,0-56.92-24.4-56.92-60.78
		c0-36.13,23.78-60.3,58.98-60.3C879.94,145.8,903.71,170.2,903.71,206.57z M844.74,171.62c-19.2,0-31.77,12.91-31.77,34.73
		s12.57,34.73,31.77,34.73c18.97,0,31.55-12.91,31.55-34.73S863.71,171.62,844.74,171.62z"/>
	
		<linearGradient id="SVGID_00000118395996193967649740000005135310309375687046_" gradientUnits="userSpaceOnUse" x1="895.7828" y1="227.1761" x2="1030.4117" y2="149.448">
		<stop  offset="0" style="stop-color:#652F8E"/>
		<stop  offset="0.8413" style="stop-color:#F6921E"/>
	</linearGradient>
	
		<linearGradient id="SVGID_00000082370728347908442150000009426989349945336499_" gradientUnits="userSpaceOnUse" x1="916.9901" y1="182.6424" x2="1030.2333" y2="182.6424">
		<stop  offset="0.0952" style="stop-color:#652D90"/>
		<stop  offset="1" style="stop-color:#EF8E26"/>
	</linearGradient>
	
		<path style="fill:url(#SVGID_00000118395996193967649740000005135310309375687046_);stroke:url(#SVGID_00000082370728347908442150000009426989349945336499_);stroke-miterlimit:10;" d="
		M917.49,100.51h27.42v118.97l51.66-72.03h32.68l-42.28,58.66l41.37,58.67h-32.46l-25.14-35.9l-25.83,35.9h-27.42V100.51z"/>
	
		<linearGradient id="SVGID_00000131346739277473057540000008589582385537956781_" gradientUnits="userSpaceOnUse" x1="1030.4768" y1="236.6472" x2="1135.5278" y2="175.996">
		<stop  offset="0" style="stop-color:#652F8E"/>
		<stop  offset="0.8413" style="stop-color:#F6921E"/>
	</linearGradient>
	
		<linearGradient id="SVGID_00000158745869342354815580000014924699894489577873_" gradientUnits="userSpaceOnUse" x1="1023.3315" y1="206.3448" x2="1142.5" y2="206.3448">
		<stop  offset="0.0952" style="stop-color:#652D90"/>
		<stop  offset="1" style="stop-color:#EF8E26"/>
	</linearGradient>
	
		<path style="fill:url(#SVGID_00000131346739277473057540000008589582385537956781_);stroke:url(#SVGID_00000158745869342354815580000014924699894489577873_);stroke-miterlimit:10;" d="
		M1108.63,228.4h29.94c-7.54,23.7-27.88,38.48-55.53,38.48c-35.43,0-59.2-24.4-59.2-60.78c0-36.13,23.78-60.3,59.2-60.3
		s58.97,24.17,58.97,60.3c0,3.29-0.23,6.34-0.46,9.39h-89.37c2.97,16.19,14.4,25.57,30.62,25.57
		C1094.23,241.07,1103.14,236.61,1108.63,228.4z M1111.6,189.68c-4.8-11.5-15.08-18.07-28.8-18.07c-13.48,0-23.77,6.56-28.57,18.07
		H1111.6z"/>
</g>
</svg>
